<svg version="1" xmlns="http://www.w3.org/2000/svg" width="933.333" height="933.333" viewBox="0 0 700.000000 700.000000"><path d="M139 350v350h422V0H139v350zm116.9-185.8c1.3.9 3.2 3 4.2 4.5 1.8 2.7 1.9 8.1 1.9 134.5V435h178v-33h-65.6c-58.6 0-65.9-.2-68.3-1.6-5.7-3.4-5.6-2.5-5.9-47.4-.3-46.3-.2-47.8 5.7-51.7l3.4-2.3h109.4c119.4 0 112.8-.3 116.9 5.7 1.8 2.7 1.9 6.4 1.9 113.8 0 104.2-.1 111.2-1.8 113.6-3.9 5.8 8.4 5.4-185.7 5.4s-181.8.4-185.7-5.4c-1.7-2.5-1.8-12.6-2.1-177.6-.2-96.3 0-177.4.3-180.2.7-6 4.6-10.9 9.3-11.6 1.5-.3 20.5-.4 42.2-.3 35.4.1 39.7.3 41.9 1.8zm141.2 3.7l3.9 3.9v41.6c0 45.4 0 45.3-5.7 49.2-2.6 1.8-5.2 1.9-44.4 1.9-45 0-45 0-48.6-5.4-1.6-2.3-1.8-6.3-2.1-41.1-.2-21.2 0-40.5.3-42.9.5-3.2 1.6-5.4 4-7.8l3.3-3.3h85.4l3.9 3.9zm132.8-2.1c7.1 3.8 7.1 3.9 7.1 49 0 44.3-.1 45.1-5.9 48.5-2.6 1.5-7.1 1.7-44.6 1.7s-42-.2-44.6-1.7c-5.8-3.4-5.9-4.2-5.9-48.5 0-37.1.1-40.6 1.8-43.7 3.8-7.1 3.9-7.1 48.7-7.1 36.9 0 40.3.1 43.4 1.8zM86.2 39.5c-27.4 13.1-45.1 35-53.9 66.5-1.7 6.2-1.8 18-1.8 244s.1 237.8 1.8 244c8.8 31.5 26.5 53.4 53.9 66.5l7.3 3.5.5-252.7c.3-139.1.3-280.4 0-314.1L93.5 36l-7.3 3.5zM605.8 298.3c-.1 144.2-.1 285.5.2 314l.5 51.7 7.3-3.5c27.4-13.1 45.1-35 53.9-66.5 1.7-6.2 1.8-18 1.8-244s-.1-237.8-1.8-244c-5.3-19-12.5-32.3-24.2-44.8-9.3-10.1-21.4-18.5-33.7-23.6l-3.6-1.5-.4 262.2z"/></svg>